<?xml version="1.0" encoding="iso-8859-1"?>
<!-- Generator: Adobe Illustrator 16.0.0, SVG Export Plug-In . SVG Version: 6.00 Build 0)  -->
<!DOCTYPE svg PUBLIC "-//W3C//DTD SVG 1.1//EN" "http://www.w3.org/Graphics/SVG/1.1/DTD/svg11.dtd">
<svg version="1.1" xmlns="http://www.w3.org/2000/svg" xmlns:xlink="http://www.w3.org/1999/xlink" x="0px" y="0px" width="630px"
	 height="630.5px" viewBox="0 0 630 630.5" style="enable-background:new 0 0 630 630.5;" xml:space="preserve">
<g id="&#x56FE;&#x5C42;_1" style="display:none;">
	
		<image style="display:inline;overflow:visible;" width="581" height="596" xlink:href="8B46D06E.jpg"  transform="matrix(1 0 0 1 25.9995 19.5)">
	</image>
</g>
<g id="&#x56FE;&#x5C42;_3">
</g>
<g id="&#x56FE;&#x5C42;_5" style="display:none;">
	<rect x="-2.5" y="1.5" style="display:inline;fill:#0D2A63;" width="632" height="629"/>
</g>
<g id="&#x56FE;&#x5C42;_4">
</g>
<g id="&#x56FE;&#x5C42;_2">
	<linearGradient id="SVGID_1_" gradientUnits="userSpaceOnUse" x1="43.125" y1="315.9727" x2="609.2324" y2="315.9727">
		<stop  offset="0.0054" style="stop-color:#FFFFFF;stop-opacity:0.9677"/>
		<stop  offset="0.8011" style="stop-color:#FFFFFF;stop-opacity:0.5359"/>
		<stop  offset="1" style="stop-color:#FFFFFF;stop-opacity:0"/>
	</linearGradient>
	<path style="opacity:0.3;fill:none;stroke:url(#SVGID_1_);stroke-width:0.75;stroke-miterlimit:10;stroke-dasharray:2;" d="
		M608.873,397.316C573.755,517.044,463.088,604.473,332,604.473c-159.334,0-288.5-129.166-288.5-288.5
		c0-159.334,129.166-288.5,288.5-288.5c109.243,0,204.305,60.718,253.278,150.248"/>
	<linearGradient id="SVGID_2_" gradientUnits="userSpaceOnUse" x1="125.7646" y1="315.9727" x2="502.3535" y2="315.9727">
		<stop  offset="0.0054" style="stop-color:#FFFFFF;stop-opacity:0.9677"/>
		<stop  offset="1" style="stop-color:#FFFFFF;stop-opacity:0"/>
	</linearGradient>
	<path style="opacity:0.5;fill:none;stroke:url(#SVGID_2_);stroke-width:0.75;stroke-miterlimit:10;" d="M489.444,447.613
		c-37.695,45.141-94.396,73.859-157.805,73.859c-113.495,0-205.5-92.006-205.5-205.5c0-113.495,92.005-205.5,205.5-205.5
		c70.934,0,133.474,35.939,170.403,90.603"/>
	<linearGradient id="SVGID_3_" gradientUnits="userSpaceOnUse" x1="195.3491" y1="315.9727" x2="467.9307" y2="315.9727">
		<stop  offset="0.0054" style="stop-color:#FFFFFF;stop-opacity:0.9677"/>
		<stop  offset="1" style="stop-color:#FFFFFF;stop-opacity:0"/>
	</linearGradient>
	
		<circle style="opacity:0.7;fill:none;stroke:url(#SVGID_3_);stroke-width:0.75;stroke-miterlimit:10;" cx="331.64" cy="315.973" r="135.916"/>
	<polygon style="opacity:0.5;fill:#FFFFFF;" points="485.982,461.529 476.48,461.617 476.398,452.106 485.903,452.02 	"/>
	<circle style="fill:#FFFFFF;" cx="286" cy="190" r="33.5"/>
	<circle style="fill:none;stroke:#F59900;stroke-miterlimit:10;" cx="280.304" cy="189.696" r="32.804"/>
	<circle style="fill:#FFFFFF;" cx="220" cy="252" r="33.5"/>
	<circle style="fill:none;stroke:#F59900;stroke-miterlimit:10;" cx="214.304" cy="251.696" r="32.804"/>
	<circle style="fill:#FFFFFF;" cx="201" cy="341" r="33.5"/>
	<circle style="fill:none;stroke:#F59900;stroke-miterlimit:10;" cx="195.304" cy="340.696" r="32.804"/>
	<circle style="fill:#FFFFFF;" cx="248" cy="420" r="33.5"/>
	<circle style="fill:none;stroke:#F59900;stroke-miterlimit:10;" cx="242.304" cy="419.696" r="32.804"/>
	<g>
		<g>
			<path style="fill:#FF7808;" d="M269.169,186.942c4.032-7.375,10.622-8.865,18.145-8.145c0.99,0.094,1.443-0.153,2.17-0.815
				c1.462-1.331,3.205-2.367,4.892-3.429c0.304-0.191,1.063-0.082,1.306,0.176c0.225,0.238,0.112,0.878,0.018,1.313
				c-0.128,0.585-0.404,1.135-0.577,1.711c-0.757,2.527-0.735,2.579,1.374,4.067c2.077,1.466,3.248,3.523,3.863,6.013
				c0.699,0.048,1.467-0.068,2.094,0.175c2.658,1.024,1.546,3.395,1.753,5.279c0.162,1.453-0.306,3.005-1.818,3.007
				c-2.006,0.003-2.613,1.243-3.568,2.493c-0.914,1.2-2.146,2.156-3.345,3.323c0.448,3.528,0.307,3.738-3.535,4.985
				c-1.817,0.589-2.382,0.193-4.012-2.854h-7.625c0.064-0.059-0.047-0.002-0.085,0.085c-1.481,3.402-3.871,3.958-6.805,1.531
				c-1.087-0.899-1.155-2.076-0.543-3.278c0.522-1.026,0.37-1.709-0.555-2.521c-2.955-2.595-4.385-5.866-3.698-9.846
				c0.198-1.155-0.198-1.707-1.17-2.315c-2.661-1.664-2.775-5.477-0.276-6.856c0.341-0.188,0.877-0.021,1.323-0.018
				c-0.083,0.425-0.022,0.986-0.272,1.256C266.449,184.197,266.676,185.554,269.169,186.942 M293.583,176.871
				c-0.128-0.103-0.256-0.206-0.385-0.309c-0.911,0.945-2.025,1.768-2.675,2.867c-0.686,1.157-1.369,1.316-2.635,1.234
				c-2.604-0.169-5.299-0.383-7.829,0.097c-4.191,0.796-7.84,2.812-9.283,7.202c-1.423,4.335-0.676,8.26,3.082,11.248
				c0.907,0.721,1.354,1.506,1.044,2.694c-0.688,2.649-0.667,2.656,1.96,3.573c0.251,0.088,0.51,0.151,0.876,0.259
				c0.218-0.483,0.429-0.916,0.608-1.361c0.834-2.066,1.144-2.2,3.334-1.893c1.242,0.175,2.563,0.429,3.754,0.185
				c2.62-0.536,4.382,0.066,5.041,2.84c0.017,0.067,0.18,0.101,0.36,0.194c0.552-0.202,1.151-0.48,1.781-0.638
				c1.331-0.333,1.842-0.92,1.137-2.32c-0.477-0.949,0.061-1.683,0.833-2.411c1.412-1.328,2.63-2.86,3.99-4.246
				c0.504-0.513,1.218-1.256,1.774-1.205c2.083,0.191,2.412-0.854,2.195-2.531c-0.056-0.432-0.054-0.882,0-1.315
				c0.145-1.173-0.365-1.567-1.504-1.471c-1.41,0.119-2.209-0.516-2.522-1.98c-0.443-2.075-1.655-3.674-3.523-4.743
				c-2.233-1.276-2.39-1.65-1.823-4.249C293.3,178.016,293.445,177.444,293.583,176.871"/>
			<path style="fill:#FF7808;" d="M273.694,179.526c-1.188-2.301-0.81-4.83,1.008-6.791c1.867-2.011,4.66-2.634,7.054-1.573
				c2.34,1.038,3.819,3.309,3.667,5.688c-0.966,0.344-1.399,0.101-1.646-1.012c-0.585-2.625-2.992-3.98-5.675-3.369
				c-2.292,0.522-3.847,2.853-3.328,5.268C275.013,178.847,274.821,179.389,273.694,179.526"/>
		</g>
		<path style="fill:#FF7808;" d="M294.577,191.903c-0.801-1.059-1.498-1.593-1.624-2.24c-0.196-0.999,0.546-1.806,1.526-1.627
			c0.592,0.108,1.388,0.938,1.464,1.525C296.015,190.12,295.272,190.785,294.577,191.903"/>
	</g>
	<g>
		<polygon style="fill:#4BBA4A;" points="214.335,266.052 212.115,266.052 212.115,258.701 214.335,256.863 		"/>
		<polygon style="fill:#4BBA4A;" points="220.996,266.052 218.775,266.052 218.775,252.574 220.996,250.737 		"/>
		<polygon style="fill:#4BBA4A;" points="227.656,266.052 225.436,266.052 225.436,246.449 227.656,244.61 		"/>
		
			<line style="fill:none;stroke:#4BBA4A;stroke-width:2;stroke-miterlimit:10;" x1="200.115" y1="265.746" x2="231.347" y2="234.789"/>
		<polygon style="fill:#4BBA4A;" points="232.096,240.322 230.431,241.547 230.431,235.525 224.31,235.525 225.535,233.86 
			232.096,233.86 		"/>
	</g>
	<g>
		<polygon style="fill:none;stroke:#00B7EE;stroke-width:2;stroke-miterlimit:10;" points="236.867,404.759 255.508,404.759 
			263.61,413.775 245.522,441.077 228.776,413.515 		"/>
		<polyline style="fill:none;stroke:#00B7EE;stroke-width:2;stroke-miterlimit:10;" points="236.928,405.166 240.92,412.504 
			245.565,405.26 250.329,413.015 255.232,405.166 		"/>
		
			<line style="fill:none;stroke:#00B7EE;stroke-width:2;stroke-miterlimit:10;" x1="228.879" y1="413.413" x2="263.496" y2="413.413"/>
		<polygon style="fill:#00B7EE;stroke:#00B7EE;stroke-miterlimit:10;" points="245.447,440.387 239.297,421.608 239.896,421.193 
			246.712,439.972 		"/>
		<polygon style="fill:#00BAEE;stroke:#00B7EE;stroke-miterlimit:10;" points="245.597,440.387 251.747,421.608 251.147,421.193 
			244.332,439.972 		"/>
	</g>
	<g>
		<path style="fill:none;stroke:#FF2E52;stroke-width:2;stroke-miterlimit:10;" d="M200.289,354.566h-11.338
			c-1.748,0-3.164-1.468-3.164-3.118v-22.915c0-1.649,1.416-2.971,3.164-2.971h14.766c1.747,0,3.164,1.321,3.164,2.971v9.422"/>
		
			<line style="fill:none;stroke:#FF2E52;stroke-width:2;stroke-linecap:round;stroke-miterlimit:10;" x1="188.687" y1="332.682" x2="203.98" y2="332.682"/>
		
			<line style="fill:none;stroke:#FF2E52;stroke-width:2;stroke-linecap:round;stroke-miterlimit:10;" x1="188.687" y1="337.955" x2="203.98" y2="337.955"/>
		
			<line style="fill:none;stroke:#FF2E52;stroke-width:2;stroke-linecap:round;stroke-miterlimit:10;" x1="188.687" y1="343.229" x2="198.179" y2="343.229"/>
		
			<line style="fill:none;stroke:#FF2E52;stroke-width:2;stroke-linecap:round;stroke-miterlimit:10;" x1="188.687" y1="348.501" x2="195.015" y2="348.501"/>
		
			<circle style="fill:none;stroke:#FF2E52;stroke-width:2;stroke-linecap:round;stroke-miterlimit:10;" cx="207.508" cy="347.49" r="7.309"/>
		
			<line style="fill:none;stroke:#FF2E52;stroke-width:2;stroke-linecap:round;stroke-miterlimit:10;" x1="207.144" y1="347.975" x2="207.144" y2="343.756"/>
		
			<line style="fill:none;stroke:#FF2E52;stroke-width:2;stroke-linecap:round;stroke-miterlimit:10;" x1="211.363" y1="347.975" x2="207.144" y2="347.975"/>
	</g>
</g>
</svg>
